# xmcd CD database file
#
# Track frame offsets:
#	150
#	20780
#	42198
#	63415
#	80840
#	102534
#	119386
#	137070
#	159286
#	176952
#	195040
#	215055
#
# Disc length: 3199 seconds
#
# Revision: 0
# Processed by: cddbd v1.5.1PL0 Copyright (c) Steve Scherf et al.
# Submitted via: CDex 1.51
#
DISCID=ac0c7d0c
DTITLE=Arto Lindsay - Salt Plus Two
DYEAR=1900
DGENRE=Jazz
TTITLE0=Habite Em Mim
TTITLE1=Kamo
TTITLE2=Personagem
TTITLE3=Twins
TTITLE4=Into Shade
TTITLE5=Jardim Da Alma
TTITLE6=De Lama Lamina
TTITLE7=Combustivel
TTITLE8=Make That Sound
TTITLE9=Salt
TTITLE10=The Rare
TTITLE11=Salt (Herbert's Prehistoric Mix)
EXTD=
EXTT0=
EXTT1=
EXTT2=
EXTT3=
EXTT4=
EXTT5=
EXTT6=
EXTT7=
EXTT8=
EXTT9=
EXTT10=
EXTT11=
PLAYORDER=
